<?xml version="1.0" encoding="UTF-8"?>
<svg width="1200pt" height="1200pt" version="1.1" viewBox="0 0 1200 1200" xmlns="http://www.w3.org/2000/svg">
 <path d="m957.05 618.28v-47.484c0-21-17.016-38.016-38.016-38.016s-38.016 17.016-38.016 38.016v47.484c0 155.21-125.81 281.06-281.06 281.06-155.16 0-281.02-125.86-281.02-281.06v-47.484c0-21-17.016-38.016-38.016-38.016s-38.016 17.016-38.016 38.016v47.484c0.84375 181.64 138.37 333.47 319.03 352.22v123.47l-227.9 0.046875c-21 0-38.016 17.016-38.016 38.016 0 20.953 17.016 37.969 38.016 37.969h531.98c21 0 38.016-17.016 38.016-38.016s-17.016-38.016-38.016-38.016l-228 0.046875v-123.47c180.66-18.797 318.19-170.63 319.03-352.26z" fill="#1334cc"/>
 <path d="m600 796.6c99.281 0 179.72-80.484 179.72-179.72v-407.06c0.046875-99.281-80.391-179.76-179.68-179.81-99.234-0.046875-179.72 80.391-179.76 179.68v407.2c0 99.281 80.438 179.72 179.72 179.72z" fill="#1334cc"/>
</svg>
